# xmcd
#
# Track frame offsets: 
#        150
#        23054
#        60394
#        89738
#        126714
#        148784
#        172484
#        202035
#        227491
#        246088
#
# Disc length: 3502 seconds
#
# Revision: 0
# Processed by: cddbd v1.5.2PL0 Copyright (c) Steve Scherf et al.
# Submitted via: ExactAudioCopy v1.3
#
DISCID=980dac0a
DTITLE=Bernie Marsden - The Ironworks Sessions
DYEAR=2007
DGENRE=Blues
TTITLE0=Queen Of The Dancefloor (Live At The Ironworks , Oswestry)
TTITLE1=Shakey Groundr (Live At The Ironworks , Oswestry)
TTITLE2=Can't Ever Happen To Your (Live At The Ironworks , Oswestry)
TTITLE3=Blues Medleyr (Live At The Ironworks , Oswestry)
TTITLE4=Latino Pressuro Bambino (From The Stacks Album)
TTITLE5=Day And Night (From The Stacks Album)
TTITLE6=Pick It Up (From The Stacks Album)
TTITLE7=Funny People (From The Live At The Granary Album)
TTITLE8=Working For The CSA  (from Big Boy Blue Sessions)
TTITLE9=Memphis (from Big Boy Blue Sessions)
EXTD=
EXTT0=
EXTT1=
EXTT2=
EXTT3=
EXTT4=
EXTT5=
EXTT6=
EXTT7=
EXTT8=
EXTT9=
PLAYORDER=
